<svg width="32" height="32" viewBox="0 0 32 32" fill="none" xmlns="http://www.w3.org/2000/svg">
<path d="M9.77533 21.9651H19.0503C19.3155 21.9651 19.5699 21.8598 19.7574 21.6722C19.945 21.4847 20.0503 21.2304 20.0503 20.9651V8.14014C20.0503 7.87492 19.945 7.62057 19.7574 7.43303C19.5699 7.24549 19.3155 7.14014 19.0503 7.14014H4.34033C4.07512 7.14014 3.82076 7.24549 3.63323 7.43303C3.44569 7.62057 3.34033 7.87492 3.34033 8.14014V20.9551C3.34033 21.2204 3.44569 21.4747 3.63323 21.6622C3.82076 21.8498 4.07512 21.9551 4.34033 21.9551H5.64033" fill="#F391A0"/>
<path d="M9.77533 21.9651H19.0503C19.3155 21.9651 19.5699 21.8598 19.7574 21.6722C19.945 21.4847 20.0503 21.2304 20.0503 20.9651V8.14014C20.0503 7.87492 19.945 7.62057 19.7574 7.43303C19.5699 7.24549 19.3155 7.14014 19.0503 7.14014H4.34033C4.07512 7.14014 3.82076 7.24549 3.63323 7.43303C3.44569 7.62057 3.34033 7.87492 3.34033 8.14014V20.9551C3.34033 21.2204 3.44569 21.4747 3.63323 21.6622C3.82076 21.8498 4.07512 21.9551 4.34033 21.9551H5.64033" stroke="#EA3788" stroke-width="1.5"/>
<path d="M22.1647 21.9647H20.0947V11.6147H24.9997C25.0719 11.6147 25.1433 11.6304 25.2089 11.6606C25.2745 11.6908 25.3328 11.7349 25.3797 11.7897L28.5297 15.5647C28.6043 15.6547 28.645 15.7679 28.6447 15.8847V21.9647H26.4997" fill="#F391A0"/>
<path d="M22.1647 21.9647H20.0947V11.6147H24.9997C25.0719 11.6147 25.1433 11.6304 25.2089 11.6606C25.2745 11.6908 25.3328 11.7349 25.3797 11.7897L28.5297 15.5647C28.6043 15.6547 28.645 15.7679 28.6447 15.8847V21.9647H26.4997" stroke="#EA3788" stroke-width="1.5"/>
<path d="M7.76541 24.8647C8.99148 24.8647 9.98541 23.8574 9.98541 22.6147C9.98541 21.3721 8.99148 20.3647 7.76541 20.3647C6.53934 20.3647 5.54541 21.3721 5.54541 22.6147C5.54541 23.8574 6.53934 24.8647 7.76541 24.8647Z" fill="#F391A0" stroke="#EA3788" stroke-width="1.5"/>
<path d="M24.2901 24.8647C25.5161 24.8647 26.5101 23.8574 26.5101 22.6147C26.5101 21.3721 25.5161 20.3647 24.2901 20.3647C23.064 20.3647 22.0701 21.3721 22.0701 22.6147C22.0701 23.8574 23.064 24.8647 24.2901 24.8647Z" fill="#F391A0" stroke="#EA3788" stroke-width="1.5"/>
</svg>
