<svg width="31" height="33" viewBox="0 0 31 33" fill="none" xmlns="http://www.w3.org/2000/svg">
<path d="M5.37974 6.78045C21.6639 4.67374 25.6769 4.9323 28.2076 7.6779C30.7383 10.4235 30.1457 19.4748 27.1876 21.9939C24.2311 24.513 11.3918 24.7524 7.32425 21.9939C3.02682 19.0778 5.52029 10.1074 5.37974 4.67374C5.46407 1.63318 2 1.14008 2 1.14008" stroke="white" stroke-width="2.01" stroke-linecap="round" stroke-linejoin="round"/>
<path d="M19.5618 11.1646H24.1469" stroke="white" stroke-width="2.01" stroke-linecap="round" stroke-linejoin="round"/>
<path fill-rule="evenodd" clip-rule="evenodd" d="M7.97549 28.359C8.47154 28.359 8.87499 28.7435 8.87499 29.2161C8.87499 29.6903 8.47154 30.0747 7.97549 30.0747C7.47779 30.0747 7.07434 29.6903 7.07434 29.2161C7.07434 28.7435 7.47779 28.359 7.97549 28.359Z" stroke="white" stroke-width="4.01" stroke-linecap="round" stroke-linejoin="round"/>
<path fill-rule="evenodd" clip-rule="evenodd" d="M25.0583 28.359C25.556 28.359 25.9595 28.7435 25.9595 29.2161C25.9595 29.6903 25.556 30.0747 25.0583 30.0747C24.5623 30.0747 24.1588 29.6903 24.1588 29.2161C24.1588 28.7435 24.5623 28.359 25.0583 28.359Z" stroke="white" stroke-width="4.01" stroke-linecap="round" stroke-linejoin="round"/>
</svg>
