<svg width="37" height="40" viewBox="0 0 37 40" fill="none" xmlns="http://www.w3.org/2000/svg">
<path d="M5.44327 8.57258C25.6025 5.96454 30.5705 6.28463 33.7034 9.68359C36.8362 13.0826 36.1026 24.2877 32.4406 27.4063C28.7806 30.5248 12.886 30.8213 7.8505 27.4063C2.53044 23.7962 5.61726 12.6912 5.44327 5.96454C5.54767 2.20044 1.25928 1.59 1.25928 1.59" stroke="#B0228C" stroke-width="2.01" stroke-linecap="round" stroke-linejoin="round"/>
<path d="M23 14H28.6762" stroke="#B0228C" stroke-width="2.01" stroke-linecap="round" stroke-linejoin="round"/>
<path fill-rule="evenodd" clip-rule="evenodd" d="M8.65661 35.2861C9.2707 35.2861 9.77016 35.762 9.77016 36.3471C9.77016 36.9341 9.2707 37.41 8.65661 37.41C8.04048 37.41 7.54102 36.9341 7.54102 36.3471C7.54102 35.762 8.04048 35.2861 8.65661 35.2861Z" fill="#B0228C" stroke="#B0228C" stroke-width="4.01" stroke-linecap="round" stroke-linejoin="round"/>
<path fill-rule="evenodd" clip-rule="evenodd" d="M29.805 35.2861C30.4211 35.2861 30.9206 35.762 30.9206 36.3471C30.9206 36.9341 30.4211 37.41 29.805 37.41C29.1909 37.41 28.6914 36.9341 28.6914 36.3471C28.6914 35.762 29.1909 35.2861 29.805 35.2861Z" fill="#B0228C" stroke="#B0228C" stroke-width="4.01" stroke-linecap="round" stroke-linejoin="round"/>
</svg>
