<svg width="15" height="27" viewBox="0 0 15 27" fill="none" xmlns="http://www.w3.org/2000/svg">
<path d="M14.5632 17.5717C14.5559 18.4523 14.3188 19.3158 13.8752 20.0766C13.4317 20.8373 12.7971 21.4691 12.0344 21.9092C11.1842 22.4474 10.2427 22.8254 9.25651 23.0247V24.963C9.26374 25.195 9.22429 25.4261 9.1405 25.6426C9.0567 25.8591 8.93027 26.0565 8.76871 26.2232C8.60715 26.3899 8.41376 26.5224 8.2 26.6129C7.98624 26.7034 7.75648 26.75 7.52436 26.75C7.29223 26.75 7.06247 26.7034 6.84872 26.6129C6.63496 26.5224 6.44156 26.3899 6.28 26.2232C6.11844 26.0565 5.99201 25.8591 5.90822 25.6426C5.82442 25.4261 5.78497 25.195 5.7922 24.963V23.0433L5.6862 23.0247C5.07163 22.907 4.47146 22.7237 3.896 22.4779C3.04111 22.1239 2.28438 21.5687 1.69022 20.8593C1.54141 20.6874 1.42791 20.4879 1.35621 20.2722C1.28451 20.0564 1.25601 19.8286 1.27234 19.6018C1.28867 19.3751 1.3495 19.1537 1.45137 18.9505C1.55324 18.7472 1.69414 18.566 1.86604 18.4172C2.03794 18.2684 2.23747 18.1549 2.45323 18.0832C2.669 18.0115 2.89677 17.983 3.12355 17.9993C3.35032 18.0156 3.57166 18.0764 3.77493 18.1783C3.9782 18.2802 4.15941 18.4211 4.30822 18.593C4.54256 18.8821 4.8425 19.1111 5.18313 19.261L5.1865 19.2626C5.53717 19.4158 5.90246 19.5331 6.27677 19.6126H6.28013C6.66611 19.6872 7.05686 19.7344 7.44949 19.7539C8.40071 19.7527 9.33386 19.4939 10.1499 19.0052C10.9912 18.4584 11.0989 17.9536 11.0989 17.5734C11.0958 17.1714 10.9497 16.7837 10.6867 16.4797C10.423 16.1817 10.1099 15.9313 9.76127 15.7394C9.40811 15.5566 9.03252 15.4208 8.64408 15.3356C8.28445 15.2603 7.91787 15.2231 7.55044 15.2246C6.98234 15.2272 6.41503 15.1821 5.85446 15.09C5.10207 14.9657 4.37231 14.7304 3.68905 14.3917C2.89823 13.9951 2.20082 13.4347 1.64311 12.7479C0.875319 11.823 0.448805 10.6623 0.435059 9.46027C0.437385 8.68074 0.62236 7.9126 0.975148 7.21747C1.45977 6.29041 2.18883 5.51364 3.08335 4.9713C3.91628 4.45853 4.83427 4.09897 5.79389 3.90963V2.03699C5.78665 1.80498 5.82611 1.57387 5.9099 1.3574C5.9937 1.14093 6.12012 0.943497 6.28168 0.776823C6.44324 0.610149 6.63664 0.47763 6.8504 0.387131C7.06416 0.296633 7.29392 0.25 7.52604 0.25C7.75817 0.25 7.98793 0.296633 8.20168 0.387131C8.41544 0.47763 8.60884 0.610149 8.7704 0.776823C8.93196 0.943497 9.05839 1.14093 9.14218 1.3574C9.22598 1.57387 9.26543 1.80498 9.2582 2.03699V3.96179L9.36419 3.98535H9.36756C9.99034 4.12832 10.5965 4.33583 11.1763 4.60451C11.8996 4.93099 12.5588 5.38396 13.1229 5.94212C13.4274 6.27048 13.5929 6.70392 13.5848 7.15161C13.5767 7.59929 13.3957 8.02648 13.0796 8.34364C12.7635 8.6608 12.337 8.84331 11.8893 8.85293C11.4417 8.86255 11.0076 8.69852 10.6782 8.39523C10.4099 8.13169 10.0972 7.91753 9.75454 7.76261C9.39356 7.59379 9.01644 7.46188 8.62893 7.3689L8.51789 7.34534C8.2102 7.26542 7.89601 7.21306 7.57904 7.18887C6.64949 7.18259 5.73556 7.42793 4.93412 7.89889C4.63856 8.04386 4.38693 8.2649 4.20508 8.5393C4.02322 8.81371 3.91771 9.13158 3.89937 9.46027C3.9171 9.86464 4.06861 10.2517 4.33009 10.5606L4.33346 10.5657C4.58147 10.8666 4.88909 11.113 5.23697 11.2892L5.24034 11.2925C5.61434 11.475 6.01272 11.6025 6.42315 11.6711H6.42651C6.79801 11.7321 7.17397 11.7619 7.55044 11.7603C8.16502 11.7582 8.77808 11.8214 9.37934 11.9487L9.38438 11.9504C10.076 12.1023 10.7446 12.3444 11.3731 12.6705L11.3799 12.6739C12.1035 13.0643 12.7519 13.5805 13.2946 14.1982L13.2979 14.2016C14.1134 15.1351 14.5634 16.3322 14.5649 17.5717H14.5632Z" fill="#EA3788"/>
</svg>
