<svg width="53" height="53" viewBox="0 0 53 53" fill="none" xmlns="http://www.w3.org/2000/svg">
<g clip-path="url(#clip0_87_217)">
<path d="M52.7952 26.1248C52.7952 11.8112 41.1892 0.214844 26.8853 0.214844C12.5717 0.214844 0.975372 11.8112 0.975372 26.1248C0.975372 39.0538 10.4471 49.7741 22.8369 51.7157V33.616H16.2574V26.1264H22.8369V20.4149C22.8369 13.9228 26.6991 10.3375 32.6195 10.3375C35.455 10.3375 38.4233 10.8428 38.4233 10.8428V17.2182H35.1506C31.9377 17.2182 30.9337 19.2182 30.9337 21.2667V26.1248H38.1189L36.9643 33.6144H30.9337V51.7141C43.3138 49.7725 52.7952 39.0522 52.7952 26.1232V26.1248Z" fill="#EC7BA7"/>
</g>
<defs>
<clipPath id="clip0_87_217">
<rect width="51.8199" height="51.8199" fill="white" transform="translate(0.975372 0.214844)"/>
</clipPath>
</defs>
</svg>
