<svg width="53" height="53" viewBox="0 0 53 53" fill="none" xmlns="http://www.w3.org/2000/svg">
<path d="M26.3597 20.9721C23.5193 20.9721 21.2065 23.2838 21.2065 26.1242C21.2065 28.9658 23.5193 31.2786 26.3597 31.2786C29.2013 31.2786 31.513 28.9658 31.513 26.1242C31.513 23.2838 29.2013 20.9721 26.3597 20.9721ZM26.3597 20.9721C23.5193 20.9721 21.2065 23.2838 21.2065 26.1242C21.2065 28.9658 23.5193 31.2786 26.3597 31.2786C29.2013 31.2786 31.513 28.9658 31.513 26.1242C31.513 23.2838 29.2013 20.9721 26.3597 20.9721ZM34.9446 12.5703H17.776C15.0356 12.5703 12.8058 14.8001 12.8058 17.5404V34.7091C12.8058 37.4495 15.0356 39.6793 17.776 39.6793H34.9446C37.685 39.6793 39.9148 37.4495 39.9148 34.7091V17.5404C39.9148 14.8001 37.685 12.5703 34.9446 12.5703ZM26.3597 35.0491C21.4396 35.0491 17.436 31.0455 17.436 26.1242C17.436 21.2041 21.4396 17.2005 26.3597 17.2005C31.281 17.2005 35.2846 21.2041 35.2846 26.1242C35.2846 31.0455 31.281 35.0491 26.3597 35.0491ZM35.5712 19.0459C34.4068 19.0459 33.4596 18.0987 33.4596 16.9344C33.4596 15.77 34.4068 14.8228 35.5712 14.8228C36.7355 14.8228 37.6827 15.77 37.6827 16.9344C37.6827 18.0987 36.7355 19.0459 35.5712 19.0459ZM26.3597 20.9721C23.5193 20.9721 21.2065 23.2838 21.2065 26.1242C21.2065 28.9658 23.5193 31.2786 26.3597 31.2786C29.2013 31.2786 31.513 28.9658 31.513 26.1242C31.513 23.2838 29.2013 20.9721 26.3597 20.9721ZM34.9446 12.5703H17.776C15.0356 12.5703 12.8058 14.8001 12.8058 17.5404V34.7091C12.8058 37.4495 15.0356 39.6793 17.776 39.6793H34.9446C37.685 39.6793 39.9148 37.4495 39.9148 34.7091V17.5404C39.9148 14.8001 37.685 12.5703 34.9446 12.5703ZM26.3597 35.0491C21.4396 35.0491 17.436 31.0455 17.436 26.1242C17.436 21.2041 21.4396 17.2005 26.3597 17.2005C31.281 17.2005 35.2846 21.2041 35.2846 26.1242C35.2846 31.0455 31.281 35.0491 26.3597 35.0491ZM35.5712 19.0459C34.4068 19.0459 33.4596 18.0987 33.4596 16.9344C33.4596 15.77 34.4068 14.8228 35.5712 14.8228C36.7355 14.8228 37.6827 15.77 37.6827 16.9344C37.6827 18.0987 36.7355 19.0459 35.5712 19.0459ZM26.3597 20.9721C23.5193 20.9721 21.2065 23.2838 21.2065 26.1242C21.2065 28.9658 23.5193 31.2786 26.3597 31.2786C29.2013 31.2786 31.513 28.9658 31.513 26.1242C31.513 23.2838 29.2013 20.9721 26.3597 20.9721ZM26.3603 0.214844C12.0507 0.214844 0.450378 11.8151 0.450378 26.1248C0.450378 40.4344 12.0507 52.0347 26.3603 52.0347C40.67 52.0347 52.2702 40.4344 52.2702 26.1248C52.2702 11.8151 40.67 0.214844 26.3603 0.214844ZM43.6853 34.7091C43.6853 39.5292 39.7647 43.4498 34.9446 43.4498H17.776C12.9559 43.4498 9.03528 39.5292 9.03528 34.7091V17.5404C9.03528 12.7204 12.9559 8.79975 17.776 8.79975H34.9446C39.7647 8.79975 43.6853 12.7204 43.6853 17.5404V34.7091ZM34.9446 12.5703H17.776C15.0356 12.5703 12.8058 14.8001 12.8058 17.5404V34.7091C12.8058 37.4495 15.0356 39.6793 17.776 39.6793H34.9446C37.685 39.6793 39.9148 37.4495 39.9148 34.7091V17.5404C39.9148 14.8001 37.685 12.5703 34.9446 12.5703ZM26.3597 35.0491C21.4396 35.0491 17.436 31.0455 17.436 26.1242C17.436 21.2041 21.4396 17.2005 26.3597 17.2005C31.281 17.2005 35.2846 21.2041 35.2846 26.1242C35.2846 31.0455 31.281 35.0491 26.3597 35.0491ZM35.5712 19.0459C34.4068 19.0459 33.4596 18.0987 33.4596 16.9344C33.4596 15.77 34.4068 14.8228 35.5712 14.8228C36.7355 14.8228 37.6827 15.77 37.6827 16.9344C37.6827 18.0987 36.7355 19.0459 35.5712 19.0459ZM26.3597 20.9721C23.5193 20.9721 21.2065 23.2838 21.2065 26.1242C21.2065 28.9658 23.5193 31.2786 26.3597 31.2786C29.2013 31.2786 31.513 28.9658 31.513 26.1242C31.513 23.2838 29.2013 20.9721 26.3597 20.9721ZM26.3597 20.9721C23.5193 20.9721 21.2065 23.2838 21.2065 26.1242C21.2065 28.9658 23.5193 31.2786 26.3597 31.2786C29.2013 31.2786 31.513 28.9658 31.513 26.1242C31.513 23.2838 29.2013 20.9721 26.3597 20.9721ZM26.3597 20.9721C23.5193 20.9721 21.2065 23.2838 21.2065 26.1242C21.2065 28.9658 23.5193 31.2786 26.3597 31.2786C29.2013 31.2786 31.513 28.9658 31.513 26.1242C31.513 23.2838 29.2013 20.9721 26.3597 20.9721ZM34.9446 12.5703H17.776C15.0356 12.5703 12.8058 14.8001 12.8058 17.5404V34.7091C12.8058 37.4495 15.0356 39.6793 17.776 39.6793H34.9446C37.685 39.6793 39.9148 37.4495 39.9148 34.7091V17.5404C39.9148 14.8001 37.685 12.5703 34.9446 12.5703ZM26.3597 35.0491C21.4396 35.0491 17.436 31.0455 17.436 26.1242C17.436 21.2041 21.4396 17.2005 26.3597 17.2005C31.281 17.2005 35.2846 21.2041 35.2846 26.1242C35.2846 31.0455 31.281 35.0491 26.3597 35.0491ZM35.5712 19.0459C34.4068 19.0459 33.4596 18.0987 33.4596 16.9344C33.4596 15.77 34.4068 14.8228 35.5712 14.8228C36.7355 14.8228 37.6827 15.77 37.6827 16.9344C37.6827 18.0987 36.7355 19.0459 35.5712 19.0459ZM26.3597 20.9721C23.5193 20.9721 21.2065 23.2838 21.2065 26.1242C21.2065 28.9658 23.5193 31.2786 26.3597 31.2786C29.2013 31.2786 31.513 28.9658 31.513 26.1242C31.513 23.2838 29.2013 20.9721 26.3597 20.9721ZM26.3597 20.9721C23.5193 20.9721 21.2065 23.2838 21.2065 26.1242C21.2065 28.9658 23.5193 31.2786 26.3597 31.2786C29.2013 31.2786 31.513 28.9658 31.513 26.1242C31.513 23.2838 29.2013 20.9721 26.3597 20.9721ZM26.3597 20.9721C23.5193 20.9721 21.2065 23.2838 21.2065 26.1242C21.2065 28.9658 23.5193 31.2786 26.3597 31.2786C29.2013 31.2786 31.513 28.9658 31.513 26.1242C31.513 23.2838 29.2013 20.9721 26.3597 20.9721ZM34.9446 12.5703H17.776C15.0356 12.5703 12.8058 14.8001 12.8058 17.5404V34.7091C12.8058 37.4495 15.0356 39.6793 17.776 39.6793H34.9446C37.685 39.6793 39.9148 37.4495 39.9148 34.7091V17.5404C39.9148 14.8001 37.685 12.5703 34.9446 12.5703ZM26.3597 35.0491C21.4396 35.0491 17.436 31.0455 17.436 26.1242C17.436 21.2041 21.4396 17.2005 26.3597 17.2005C31.281 17.2005 35.2846 21.2041 35.2846 26.1242C35.2846 31.0455 31.281 35.0491 26.3597 35.0491ZM35.5712 19.0459C34.4068 19.0459 33.4596 18.0987 33.4596 16.9344C33.4596 15.77 34.4068 14.8228 35.5712 14.8228C36.7355 14.8228 37.6827 15.77 37.6827 16.9344C37.6827 18.0987 36.7355 19.0459 35.5712 19.0459ZM26.3597 20.9721C23.5193 20.9721 21.2065 23.2838 21.2065 26.1242C21.2065 28.9658 23.5193 31.2786 26.3597 31.2786C29.2013 31.2786 31.513 28.9658 31.513 26.1242C31.513 23.2838 29.2013 20.9721 26.3597 20.9721Z" fill="#EC7BA7"/>
</svg>
