<svg width="53" height="53" viewBox="0 0 53 53" fill="none" xmlns="http://www.w3.org/2000/svg">
<rect x="0.925415" y="0.214844" width="51.8199" height="51.8199" rx="25.9099" fill="#EC7BA7"/>
<g clip-path="url(#clip0_87_221)">
<path d="M17.4307 15.0635C18.2052 15.0635 18.8116 15.3076 19.2522 15.7937C19.6928 16.2797 19.929 16.893 19.9608 17.6277C19.9608 18.3534 19.7133 18.9655 19.2147 19.4629C18.7162 19.9591 18.0348 20.2078 17.1729 20.2078H17.1422C16.3007 20.2078 15.6341 19.9591 15.1378 19.4629C14.6473 18.9655 14.3986 18.3534 14.3986 17.6277C14.3986 16.8816 14.6688 16.2684 15.2139 15.7857C15.759 15.3042 16.4995 15.0635 17.4307 15.0635ZM14.7245 22.2452H20.0426V37.1854H14.7245V22.2452ZM39.2721 28.6194V37.1854H33.9551V29.1952C33.9551 28.1788 33.7462 27.3645 33.3305 26.7445C32.9172 26.1301 32.2256 25.8224 31.2489 25.8224C30.5051 25.8224 29.9078 26.0109 29.4626 26.3902C29.0163 26.7672 28.6926 27.184 28.4973 27.6416C28.4337 27.8074 28.394 27.9903 28.3724 28.1935C28.352 28.3934 28.3429 28.6103 28.3429 28.8386V37.1865H22.9929C23.0157 34.6586 23.0282 32.3397 23.0282 30.2365V27.5803V25.1671C23.0282 24.4324 23.0202 23.8055 23.0077 23.2854C23.0009 22.7698 22.9929 22.4212 22.9929 22.2452H28.3429V24.3608L28.3133 24.4221H28.3429V24.3608C28.5087 24.1008 28.721 23.8293 28.9799 23.5443C29.2423 23.2604 29.5557 22.9947 29.9373 22.7494C30.3154 22.5063 30.7708 22.3065 31.3046 22.1441C31.8417 21.984 32.4527 21.9045 33.1488 21.9045C34.0142 21.9045 34.8227 22.0362 35.5768 22.3008C36.3286 22.5654 36.9747 22.9799 37.5244 23.5454C38.0706 24.1076 38.4987 24.8071 38.8099 25.6429C39.1199 26.4765 39.2721 27.469 39.2721 28.6194Z" fill="#EFC2C8"/>
</g>
<defs>
<clipPath id="clip0_87_221">
<rect width="24.8735" height="24.8735" fill="white" transform="translate(14.3986 13.688)"/>
</clipPath>
</defs>
</svg>
