<svg width="29" height="39" viewBox="0 0 29 39" fill="none" xmlns="http://www.w3.org/2000/svg">
<path fill-rule="evenodd" clip-rule="evenodd" d="M14.2731 37.4079C7.40859 37.4079 1.54639 36.3397 1.54639 32.0615C1.54639 27.7836 7.3714 23.8342 14.2731 23.8342C21.1378 23.8342 27 27.7453 27 32.0234C27 36.2997 21.175 37.4079 14.2731 37.4079Z" stroke="#B0228C" stroke-width="2.01061" stroke-linecap="round" stroke-linejoin="round"/>
<path fill-rule="evenodd" clip-rule="evenodd" d="M14.2597 17.9059C18.7647 17.9059 22.4158 14.2547 22.4158 9.7499C22.4158 5.24506 18.7647 1.59216 14.2597 1.59216C9.75498 1.59216 6.1021 5.24506 6.1021 9.7499C6.08689 14.2395 9.71273 17.8908 14.2023 17.9059C14.2225 17.9059 14.2411 17.9059 14.2597 17.9059Z" stroke="#B0228C" stroke-width="2.01061" stroke-linecap="round" stroke-linejoin="round"/>
</svg>
