<svg width="30" height="42" viewBox="0 0 30 42" fill="none" xmlns="http://www.w3.org/2000/svg">
<path fill-rule="evenodd" clip-rule="evenodd" d="M14.8999 40.2276C7.4026 40.2276 1 39.0609 1 34.3884C1 29.7162 7.36199 25.4027 14.8999 25.4027C22.3975 25.4027 28.8 29.6743 28.8 34.3468C28.8 39.0173 22.4381 40.2276 14.8999 40.2276Z" stroke="white" stroke-width="1.5848" stroke-linecap="round" stroke-linejoin="round"/>
<path fill-rule="evenodd" clip-rule="evenodd" d="M14.8853 18.9278C19.8055 18.9278 23.7932 14.9401 23.7932 10.02C23.7932 5.09991 19.8055 1.11028 14.8853 1.11028C9.96525 1.11028 5.97564 5.09991 5.97564 10.02C5.95903 14.9235 9.91911 18.9114 14.8225 18.9278C14.8446 18.9278 14.865 18.9278 14.8853 18.9278Z" stroke="white" stroke-width="1.5848" stroke-linecap="round" stroke-linejoin="round"/>
</svg>
