<svg width="22" height="21" viewBox="0 0 22 21" fill="none" xmlns="http://www.w3.org/2000/svg">
<path d="M20.8979 19.4196L14.9238 13.4412C16.1015 12.0287 16.8099 10.2237 16.8099 8.25224C16.8099 3.75458 13.1187 0.0975647 8.5784 0.0975647C4.03807 0.0975647 0.338379 3.75885 0.338379 8.25651C0.338379 12.7542 4.02953 16.4112 8.56987 16.4112C10.4987 16.4112 12.2738 15.7498 13.682 14.6446L19.6775 20.64C20.0274 20.9899 20.548 20.9899 20.8979 20.64C21.2478 20.2901 21.2478 19.7695 20.8979 19.4196ZM2.08794 8.25651C2.08794 4.72324 4.99819 1.8514 8.56987 1.8514C12.1415 1.8514 15.0518 4.72324 15.0518 8.25651C15.0518 11.7898 12.1415 14.6616 8.56987 14.6616C4.99819 14.6616 2.08794 11.7855 2.08794 8.25651Z" fill="#B0228C"/>
</svg>
