<svg width="18" height="18" viewBox="0 0 18 18" fill="none" xmlns="http://www.w3.org/2000/svg">
<path fill-rule="evenodd" clip-rule="evenodd" d="M9.11091 1.45044C7.36884 1.45044 7.20413 4.48474 6.16698 5.55682C5.12984 6.6289 1.90546 5.40311 1.45747 7.306C1.01042 9.20988 3.91105 9.85584 4.26868 11.4892C4.6282 13.1227 2.85601 15.4176 4.37033 16.5597C5.88465 17.7008 7.51467 15.1179 9.11091 15.1179C10.7071 15.1179 12.3372 17.7008 13.8515 16.5597C15.3658 15.4176 13.5945 13.1227 13.9531 11.4892C14.3117 9.85584 17.2114 9.20988 16.7643 7.306C16.3173 5.40311 13.092 6.6289 12.0558 5.55682C11.0186 4.48474 10.8529 1.45044 9.11091 1.45044Z" fill="#E56B70" stroke="#E56B70" stroke-width="1.28336" stroke-linecap="round" stroke-linejoin="round"/>
</svg>
