<svg width="56" height="56" viewBox="0 0 56 56" fill="none" xmlns="http://www.w3.org/2000/svg">
<rect x="52.094" y="55.7788" width="51.8199" height="51.8199" rx="25.9099" transform="rotate(-176 52.094 55.7788)" fill="#EC7BA7"/>
<path d="M42.2789 20.106C41.8176 20.2732 41.3457 20.4085 40.8661 20.5117C41.4667 19.9212 41.9428 19.2102 42.2585 18.4179C42.3293 18.2403 42.283 18.0373 42.142 17.908C42.0012 17.7787 41.795 17.7499 41.624 17.8357C40.5842 18.3581 39.4774 18.7083 38.3306 18.8781C37.2706 17.6869 35.7697 16.9462 34.1723 16.8345C30.8005 16.5987 27.8655 19.15 27.6297 22.5217C27.6111 22.7873 27.6095 23.0526 27.6245 23.3153C23.4661 22.6554 19.72 20.3268 17.278 16.8634C17.191 16.74 17.0487 16.6667 16.8977 16.6683C16.7467 16.6695 16.6057 16.7448 16.5207 16.8698C15.9139 17.7615 15.5532 18.8047 15.4775 19.8865C15.3745 21.36 15.8028 22.7947 16.6557 23.9521C16.3799 23.8345 16.1143 23.693 15.8628 23.5294C15.7278 23.4414 15.5562 23.4306 15.411 23.5009C15.2658 23.5712 15.1679 23.7122 15.1529 23.8728C15.1504 23.8999 15.1485 23.927 15.1466 23.9545C14.9928 26.1538 16.038 28.2167 17.7723 29.4224C17.6179 29.396 17.4641 29.3626 17.3118 29.3223C17.1548 29.2808 16.9872 29.3251 16.8714 29.439C16.7555 29.5528 16.708 29.7194 16.7468 29.8772C17.2704 32.0155 18.8875 33.6743 20.9396 34.2891C19.1346 35.2513 17.1174 35.6803 15.0415 35.5352C14.6084 35.5049 14.1745 35.449 13.7517 35.3687C13.5417 35.3287 13.3304 35.4396 13.2442 35.636C13.1579 35.8325 13.2187 36.0625 13.3908 36.1906C15.9381 38.087 18.9585 39.2064 22.1254 39.4279C28.3512 39.8632 32.4511 37.1998 34.7942 34.8887C37.716 32.007 39.5527 28.0507 39.8335 24.0344C39.8453 23.8666 39.8546 23.6971 39.8612 23.5278C40.9855 22.7978 41.9731 21.8883 42.7996 20.8213C42.9251 20.6593 42.9286 20.4337 42.8078 20.2681C42.6874 20.1022 42.4717 20.0362 42.2789 20.106Z" fill="#EFC2C8"/>
</svg>
