<svg width="483" height="264" viewBox="0 0 483 264" fill="none" xmlns="http://www.w3.org/2000/svg">
   <path
      d="M98.4416 108.917L81.87 125.217H35.9583V146.95H73.9916C79.2439 146.95 83.6811 148.852 87.3033 152.655C91.1066 156.277 93.0083 160.714 93.0083 165.967V184.983C93.0083 190.236 91.1066 194.763 87.3033 198.567C83.6811 202.189 79.2439 204 73.9916 204H16.9417V187.7H73.9916V163.25H35.9583C30.7061 163.25 26.1783 161.439 22.375 157.817C18.7528 154.013 16.9417 149.486 16.9417 144.233V127.933C16.9417 122.681 18.7528 118.244 22.375 114.622C26.1783 110.818 30.7061 108.917 35.9583 108.917H98.4416ZM221.954 184.983C221.954 190.236 220.053 194.763 216.249 198.567C212.627 202.189 208.19 204 202.938 204H145.888V261.05H126.871V108.917H145.888V122.5L159.471 108.917H202.938C208.19 108.917 212.627 110.818 216.249 114.622C220.053 118.244 221.954 122.681 221.954 127.933V184.983ZM202.938 187.7V125.217H145.888V201.283L159.471 187.7H202.938ZM336.118 146.95H317.101V125.217H279.068V204H260.051V108.917H279.068V122.5L292.651 108.917H317.101C322.354 108.917 326.791 110.818 330.413 114.622C334.216 118.244 336.118 122.681 336.118 127.933V146.95ZM460.989 242.033C460.989 247.286 459.087 251.723 455.284 255.345C451.662 259.148 447.225 261.05 441.972 261.05H363.189L379.489 244.75H441.972V190.417L428.389 204H384.922C379.67 204 375.142 202.189 371.339 198.567C367.717 194.763 365.906 190.236 365.906 184.983V108.917H384.922V187.7H441.972V108.917H460.989V242.033Z"
      fill="#B0228C" />
   <path
      d="M98.4416 108.917L101.948 112.481L110.655 103.917H98.4416V108.917ZM81.87 125.217V130.217H83.9169L85.3762 128.781L81.87 125.217ZM35.9583 125.217V120.217H30.9583V125.217H35.9583ZM35.9583 146.95H30.9583V151.95H35.9583V146.95ZM87.3033 152.655L83.6826 156.103L83.7667 156.192L83.855 156.276L87.3033 152.655ZM87.3033 198.567L90.8388 202.102L90.8388 202.102L87.3033 198.567ZM16.9417 204H11.9417V209H16.9417V204ZM16.9417 187.7V182.7H11.9417V187.7H16.9417ZM73.9916 187.7V192.7H78.9916V187.7H73.9916ZM73.9916 163.25H78.9916V158.25H73.9916V163.25ZM22.375 157.817L18.7543 161.265L18.8384 161.353L18.9267 161.437L22.375 157.817ZM22.375 114.622L18.8395 111.086L18.8395 111.086L22.375 114.622ZM94.9354 105.352L78.3638 121.652L85.3762 128.781L101.948 112.481L94.9354 105.352ZM81.87 120.217H35.9583V130.217H81.87V120.217ZM30.9583 125.217V146.95H40.9583V125.217H30.9583ZM35.9583 151.95H73.9916V141.95H35.9583V151.95ZM73.9916 151.95C77.8755 151.95 81.0041 153.291 83.6826 156.103L90.924 149.207C86.358 144.413 80.6122 141.95 73.9916 141.95V151.95ZM83.855 156.276C86.6674 158.954 88.0083 162.083 88.0083 165.967H98.0083C98.0083 159.346 95.5458 153.6 90.7516 149.034L83.855 156.276ZM88.0083 165.967V184.983H98.0083V165.967H88.0083ZM88.0083 184.983C88.0083 188.874 86.6587 192.14 83.7678 195.031L90.8388 202.102C95.5545 197.386 98.0083 191.597 98.0083 184.983H88.0083ZM83.7678 195.031C81.1095 197.689 77.9553 199 73.9916 199V209C80.5324 209 86.2527 206.688 90.8388 202.102L83.7678 195.031ZM73.9916 199H16.9417V209H73.9916V199ZM21.9417 204V187.7H11.9417V204H21.9417ZM16.9417 192.7H73.9916V182.7H16.9417V192.7ZM78.9916 187.7V163.25H68.9916V187.7H78.9916ZM73.9916 158.25H35.9583V168.25H73.9916V158.25ZM35.9583 158.25C31.99 158.25 28.6969 156.933 25.8233 154.196L18.9267 161.437C23.6598 165.945 29.4222 168.25 35.9583 168.25V158.25ZM25.9957 154.368C23.2589 151.495 21.9417 148.202 21.9417 144.233H11.9417C11.9417 150.769 14.2466 156.532 18.7543 161.265L25.9957 154.368ZM21.9417 144.233V127.933H11.9417V144.233H21.9417ZM21.9417 127.933C21.9417 123.97 23.2522 120.816 25.9105 118.157L18.8395 111.086C14.2533 115.672 11.9417 121.393 11.9417 127.933H21.9417ZM25.9105 118.157C28.8015 115.266 32.0675 113.917 35.9583 113.917V103.917C29.3447 103.917 23.5552 106.37 18.8395 111.086L25.9105 118.157ZM35.9583 113.917H98.4416V103.917H35.9583V113.917ZM216.249 198.567L219.785 202.102L219.785 202.102L216.249 198.567ZM145.888 204V199H140.888V204H145.888ZM145.888 261.05V266.05H150.888V261.05H145.888ZM126.871 261.05H121.871V266.05H126.871V261.05ZM126.871 108.917V103.917H121.871V108.917H126.871ZM145.888 108.917H150.888V103.917H145.888V108.917ZM145.888 122.5H140.888V134.571L149.423 126.036L145.888 122.5ZM159.471 108.917V103.917H157.4L155.936 105.381L159.471 108.917ZM216.249 114.622L212.629 118.07L212.713 118.158L212.801 118.242L216.249 114.622ZM202.938 187.7V192.7H207.938V187.7H202.938ZM202.938 125.217H207.938V120.217H202.938V125.217ZM145.888 125.217V120.217H140.888V125.217H145.888ZM145.888 201.283H140.888V213.354L149.423 204.819L145.888 201.283ZM159.471 187.7V182.7H157.4L155.936 184.164L159.471 187.7ZM216.954 184.983C216.954 188.874 215.605 192.14 212.714 195.031L219.785 202.102C224.501 197.386 226.954 191.597 226.954 184.983H216.954ZM212.714 195.031C210.056 197.689 206.901 199 202.938 199V209C209.478 209 215.199 206.688 219.785 202.102L212.714 195.031ZM202.938 199H145.888V209H202.938V199ZM140.888 204V261.05H150.888V204H140.888ZM145.888 256.05H126.871V266.05H145.888V256.05ZM131.871 261.05V108.917H121.871V261.05H131.871ZM126.871 113.917H145.888V103.917H126.871V113.917ZM140.888 108.917V122.5H150.888V108.917H140.888ZM149.423 126.036L163.007 112.452L155.936 105.381L142.352 118.965L149.423 126.036ZM159.471 113.917H202.938V103.917H159.471V113.917ZM202.938 113.917C206.822 113.917 209.95 115.258 212.629 118.07L219.87 111.173C215.304 106.379 209.558 103.917 202.938 103.917V113.917ZM212.801 118.242C215.614 120.921 216.954 124.05 216.954 127.933H226.954C226.954 121.313 224.492 115.567 219.698 111.001L212.801 118.242ZM216.954 127.933V184.983H226.954V127.933H216.954ZM207.938 187.7V125.217H197.938V187.7H207.938ZM202.938 120.217H145.888V130.217H202.938V120.217ZM140.888 125.217V201.283H150.888V125.217H140.888ZM149.423 204.819L163.007 191.236L155.936 184.164L142.352 197.748L149.423 204.819ZM159.471 192.7H202.938V182.7H159.471V192.7ZM336.118 146.95V151.95H341.118V146.95H336.118ZM317.101 146.95H312.101V151.95H317.101V146.95ZM317.101 125.217H322.101V120.217H317.101V125.217ZM279.068 125.217V120.217H274.068V125.217H279.068ZM279.068 204V209H284.068V204H279.068ZM260.051 204H255.051V209H260.051V204ZM260.051 108.917V103.917H255.051V108.917H260.051ZM279.068 108.917H284.068V103.917H279.068V108.917ZM279.068 122.5H274.068V134.571L282.604 126.036L279.068 122.5ZM292.651 108.917V103.917H290.58L289.116 105.381L292.651 108.917ZM330.413 114.622L326.792 118.07L326.876 118.158L326.965 118.242L330.413 114.622ZM336.118 141.95H317.101V151.95H336.118V141.95ZM322.101 146.95V125.217H312.101V146.95H322.101ZM317.101 120.217H279.068V130.217H317.101V120.217ZM274.068 125.217V204H284.068V125.217H274.068ZM279.068 199H260.051V209H279.068V199ZM265.051 204V108.917H255.051V204H265.051ZM260.051 113.917H279.068V103.917H260.051V113.917ZM274.068 108.917V122.5H284.068V108.917H274.068ZM282.604 126.036L296.187 112.452L289.116 105.381L275.532 118.965L282.604 126.036ZM292.651 113.917H317.101V103.917H292.651V113.917ZM317.101 113.917C320.985 113.917 324.114 115.258 326.792 118.07L334.034 111.173C329.468 106.379 323.722 103.917 317.101 103.917V113.917ZM326.965 118.242C329.777 120.921 331.118 124.05 331.118 127.933H341.118C341.118 121.313 338.656 115.567 333.861 111.001L326.965 118.242ZM331.118 127.933V146.95H341.118V127.933H331.118ZM455.284 255.345L451.836 251.724L451.748 251.808L451.663 251.897L455.284 255.345ZM363.189 261.05L359.654 257.514L351.118 266.05H363.189V261.05ZM379.489 244.75V239.75H377.418L375.954 241.214L379.489 244.75ZM441.972 244.75V249.75H446.972V244.75H441.972ZM441.972 190.417H446.972V178.346L438.437 186.881L441.972 190.417ZM428.389 204V209H430.46L431.925 207.536L428.389 204ZM371.339 198.567L367.718 202.015L367.803 202.103L367.891 202.187L371.339 198.567ZM365.906 108.917V103.917H360.906V108.917H365.906ZM384.922 108.917H389.922V103.917H384.922V108.917ZM384.922 187.7H379.922V192.7H384.922V187.7ZM441.972 187.7V192.7H446.972V187.7H441.972ZM441.972 108.917V103.917H436.972V108.917H441.972ZM460.989 108.917H465.989V103.917H460.989V108.917ZM455.989 242.033C455.989 245.917 454.648 249.046 451.836 251.724L458.732 258.966C463.527 254.4 465.989 248.654 465.989 242.033H455.989ZM451.663 251.897C448.985 254.709 445.856 256.05 441.972 256.05V266.05C448.593 266.05 454.339 263.587 458.905 258.793L451.663 251.897ZM441.972 256.05H363.189V266.05H441.972V256.05ZM366.725 264.586L383.025 248.286L375.954 241.214L359.654 257.514L366.725 264.586ZM379.489 249.75H441.972V239.75H379.489V249.75ZM446.972 244.75V190.417H436.972V244.75H446.972ZM438.437 186.881L424.854 200.464L431.925 207.536L445.508 193.952L438.437 186.881ZM428.389 199H384.922V209H428.389V199ZM384.922 199C380.954 199 377.661 197.683 374.787 194.946L367.891 202.187C372.624 206.695 378.386 209 384.922 209V199ZM374.96 195.118C372.223 192.245 370.906 188.952 370.906 184.983H360.906C360.906 191.519 363.211 197.282 367.718 202.015L374.96 195.118ZM370.906 184.983V108.917H360.906V184.983H370.906ZM365.906 113.917H384.922V103.917H365.906V113.917ZM379.922 108.917V187.7H389.922V108.917H379.922ZM384.922 192.7H441.972V182.7H384.922V192.7ZM446.972 187.7V108.917H436.972V187.7H446.972ZM441.972 113.917H460.989V103.917H441.972V113.917ZM455.989 108.917V242.033H465.989V108.917H455.989Z"
      fill="#F391A0" />
   <path d="M5.90283 50.4744L477.843 53.1471" stroke="#B0228C" stroke-width="10" stroke-linecap="round" />
   <line x1="7.02824" y1="73.4236" x2="476.73" y2="76.0836" stroke="#B0228C" stroke-width="10" stroke-linecap="round" />
</svg>